<?xml version="1.0" standalone="no"?><!DOCTYPE svg PUBLIC "-//W3C//DTD SVG 1.1//EN" "http://www.w3.org/Graphics/SVG/1.1/DTD/svg11.dtd"><svg t="1612770528517" class="icon" viewBox="0 0 1024 1024" version="1.1" xmlns="http://www.w3.org/2000/svg" p-id="1616" xmlns:xlink="http://www.w3.org/1999/xlink" width="32" height="32"><defs><style type="text/css"></style></defs><path d="M664.2 367.2h-114v-114c0-21-17-38-38-38s-38 17-38 38v114h-114c-21 0-38 17-38 38s17 38 38 38h114v114c0 21 17 38 38 38s38-17 38-38v-114h114c21 0 38-17 38-38s-17-38-38-38z" fill="#29CCB6" p-id="1617"></path><path d="M816.1 133.3v743.8L563.3 729.6c-15.8-9.2-33.4-13.8-51-13.8s-35.3 4.6-51 13.8l-253 147.6V133.3h607.8m0-101.3H208.3C152.3 32 107 77.4 107 133.3v759.8c0 40.3 23.5 75.1 57.6 91.4 21.7 10.4 47.4 7.7 68.2-4.4l279.4-163 279.4 163c20.8 12.1 46.5 14.8 68.2 4.4 34.1-16.3 57.6-51.1 57.6-91.4V133.3C917.5 77.4 872.1 32 816.1 32z" fill="#4585F5" p-id="1618"></path></svg>