<?xml version="1.0" standalone="no"?><!DOCTYPE svg PUBLIC "-//W3C//DTD SVG 1.1//EN" "http://www.w3.org/Graphics/SVG/1.1/DTD/svg11.dtd"><svg t="1613619389512" class="icon" viewBox="0 0 1024 1024" version="1.1" xmlns="http://www.w3.org/2000/svg" p-id="4402" xmlns:xlink="http://www.w3.org/1999/xlink" width="32" height="32"><defs><style type="text/css"></style></defs><path d="M512.1 67.13c-245.38 0-445.01 199.61-445.01 444.99S266.73 957.13 512.1 957.13s445-199.63 445-445.01-199.62-444.99-445-444.99z m0 827.63c-210.99 0-382.64-171.66-382.64-382.64S301.11 129.5 512.1 129.5c210.98 0 382.63 171.64 382.63 382.62S723.09 894.76 512.1 894.76z"  p-id="4403"></path><path d="M666.05 529.78H543.28v-64.46h119.51c17.22 0 31.18-13.96 31.18-31.18s-13.96-31.18-31.18-31.18h-97.93l72.56-72.9c12.18-12.24 12.19-32.09 0.01-44.33-12.17-12.24-31.91-12.24-44.09 0l-81.28 81.66-81.28-81.66c-12.18-12.24-31.92-12.24-44.09 0-12.18 12.24-12.17 32.09 0.01 44.33l72.56 72.9H361.4c-17.22 0-31.18 13.96-31.18 31.18s13.96 31.18 31.18 31.18h119.51v64.46H358.15c-17.22 0-31.18 13.96-31.18 31.18s13.96 31.18 31.18 31.18h122.76v124.37c0 17.22 13.96 31.18 31.18 31.18s31.18-13.96 31.18-31.18V592.15h122.76c17.22 0 31.18-13.96 31.18-31.18s-13.94-31.19-31.16-31.19z" p-id="4404"></path></svg>