<?xml version="1.0" standalone="no"?><!DOCTYPE svg PUBLIC "-//W3C//DTD SVG 1.1//EN" "http://www.w3.org/Graphics/SVG/1.1/DTD/svg11.dtd"><svg t="1613619348842" class="icon" viewBox="0 0 1024 1024" version="1.1" xmlns="http://www.w3.org/2000/svg" p-id="4256" xmlns:xlink="http://www.w3.org/1999/xlink" width="32" height="32"><defs><style type="text/css"></style></defs><path d="M820.53 439.87c-18.51 0-33.51 15-33.51 33.51v351.5c0 21.84-17.76 39.61-39.6 39.61H173.73c-21.84 0-39.61-17.77-39.61-39.61V251.19c0-21.84 17.77-39.6 39.61-39.6h426.39c18.51 0 33.51-15 33.51-33.51s-15-33.51-33.51-33.51H173.73c-58.8 0-106.63 47.83-106.63 106.62v573.69c0 58.8 47.83 106.63 106.63 106.63h573.69c58.79 0 106.62-47.83 106.62-106.63v-351.5c0.01-18.51-14.99-33.51-33.51-33.51z"  p-id="4257"></path><path d="M946.45 103.59c-10.96-11.03-27.75-14-41.88-7.3L665.96 209.85c-10.66 5.06-18.27 15.01-20.38 26.62-2.11 11.61 1.52 23.58 9.71 32.07l42.05 43.75-166.6 180.03-70.99-75.84c-7.63-8.17-18.41-12.97-29.6-13.17-10.53 0.12-22.13 4.2-30.05 12.1L203.41 611.25c-13.11 13.06-13.16 34.28-0.1 47.4 6.55 6.57 15.15 9.86 23.75 9.86 8.55 0 17.1-3.25 23.65-9.76l178.05-177.29 71.71 76.62c7.83 8.39 18.89 13.2 30.36 13.2h0.07c11.51-0.02 22.59-4.88 30.42-13.33L743.86 360.7l33.15 34.49a36.742 36.742 0 0 0 26.52 11.3c1.89 0 3.8-0.14 5.69-0.45a36.81 36.81 0 0 0 27.34-20.21l116.88-240.34c6.78-14.01 3.97-30.85-6.99-41.9zM795.27 317.46l-62.61-65.14 122.68-58.38-60.07 123.52z"  p-id="4258"></path></svg>